<?xml version="1.0" encoding="UTF-8" standalone="no"?>
<svg
   version="1.1"
   id="Layer_1"
   x="0px"
   y="0px"
   width="100%"
   viewBox="0 0 500 352"
   enable-background="new 0 0 500 352"
   xml:space="preserve"
   sodipodi:docname="icon.svg"
   inkscape:version="1.4.2 (ebf0e940, 2025-05-08)"
   xmlns:inkscape="http://www.inkscape.org/namespaces/inkscape"
   xmlns:sodipodi="http://sodipodi.sourceforge.net/DTD/sodipodi-0.dtd"
   xmlns="http://www.w3.org/2000/svg"
   xmlns:svg="http://www.w3.org/2000/svg"><defs
   id="defs61" /><sodipodi:namedview
   id="namedview61"
   pagecolor="#ffffff"
   bordercolor="#000000"
   borderopacity="0.25"
   inkscape:showpageshadow="2"
   inkscape:pageopacity="0.0"
   inkscape:pagecheckerboard="0"
   inkscape:deskcolor="#d1d1d1"
   inkscape:zoom="0.83567165"
   inkscape:cx="300.95553"
   inkscape:cy="164.53831"
   inkscape:window-width="1280"
   inkscape:window-height="648"
   inkscape:window-x="1723"
   inkscape:window-y="183"
   inkscape:window-maximized="0"
   inkscape:current-layer="Layer_1" />
<path
   fill="#3c7ad3"
   opacity="1"
   stroke="none"
   d="m 360.55731,31.113444 c 19.15756,2.76036 35.11758,18.71341 38.77706,39.76655 0.1474,3.48419 0.62833,6.29535 1.10926,9.10652 0.0621,18.27796 0.16256,36.555886 0.17746,54.833866 0.0228,28.08809 -0.0131,56.1762 -0.47428,84.82254 -1.84893,3.93688 -3.0939,7.30439 0.25711,10.33956 -1.60717,23.15764 -16.48043,40.62997 -39.78384,45.63751 -4.61938,-0.0754 -8.55945,0.33969 -12.50006,0.34543 -34.982,0.0509 -69.96411,0.0127 -104.94608,0.0753 -1.88083,0.003 -3.76046,0.67294 -5.64067,1.03237 -15.83893,15.93372 -31.66194,31.88331 -47.52331,47.79468 -8.31404,8.34024 -26.21533,6.40259 -29.00417,-8.89062 0.38516,-12.60236 0.50157,-24.52228 0.51199,-36.44232 7.4e-4,-0.82251 -0.78889,-1.64573 -1.21098,-2.46863 -2.95566,-0.34775 -5.91133,-0.69553 -9.38063,-1.48566 -4.26608,-1.71472 -8.01605,-2.99435 -11.77188,-4.25659 -2.257,-0.75852 -4.52312,-1.48993 -6.78513,-2.23352 -0.25309,-0.002 -0.48742,-0.0686 -0.8713,-0.72644 -1.18756,-1.0116 -2.20677,-1.49799 -3.22597,-1.98438 0,0 0.0211,-0.0134 -0.001,-0.32013 -0.36249,-0.43054 -0.70283,-0.55426 -1.04317,-0.67801 0,0 0.25944,0.0458 0.13659,-0.32955 -1.43562,-1.22907 -2.74839,-2.0828 -4.06115,-2.9365 -0.29642,-0.0308 -0.52942,-0.16882 -0.75898,-0.97555 -1.03511,-1.41489 -2.01026,-2.2681 -2.9854,-3.12128 -1e-5,0 0.0329,-0.0177 -0.001,-0.32132 -0.46971,-0.67529 -0.90537,-1.047 -1.34102,-1.4187 1e-5,0 0.2693,0.0519 0.22571,-0.32553 -1.03095,-1.53401 -2.01831,-2.69057 -3.00567,-3.84714 0,0 0.10624,-0.0826 0.10239,-0.39929 -1.04256,-2.08818 -2.08126,-3.85964 -3.11998,-5.6311 0,0 0.0961,-0.0283 0.11004,-0.36512 -0.79468,-2.1316 -1.60327,-3.92636 -2.41185,-5.72113 -0.16614,-0.43364 -0.33228,-0.86728 -0.21663,-1.92225 0.0822,-3.87851 -0.28872,-7.13555 -0.29114,-10.39286 -0.0369,-49.7117 -0.033,-99.42343 0.002,-149.135126 10e-4,-1.96255 0.55172,-3.92276 0.57999,-5.88789 0.0222,-1.54443 -0.36705,-3.09478 -0.57354,-4.6425 0.0802,-0.54905 0.16041,-1.0981 0.74845,-1.99765 1.70913,-3.61412 2.91041,-6.87775 4.1117,-10.14138 0,0 0.0601,0.0845 0.26414,-0.0424 0.28805,-0.46796 0.37207,-0.80904 0.4561,-1.15012 0,0 0.0812,-0.0745 0.40194,-0.0571 0.86675,-1.20993 1.41279,-2.43729 1.95884,-3.66465 -1e-5,0 0.0352,0.038 0.38215,-0.006 1.05687,-1.17664 1.76682,-2.30971 2.47677,-3.44277 0.24444,-0.42673 0.48887,-0.85347 1.27598,-1.42631 0.82603,-0.60523 1.10939,-1.06434 1.39275,-1.52346 0,0 0.20809,0.17218 0.44896,0.10977 0.51515,-0.5906 0.78942,-1.11879 1.06369,-1.64696 0,0 -0.009,-0.0216 0.36903,-0.0223 1.42985,-1.04381 2.48153,-2.0869 3.53322,-3.12999 0,0 0.0717,0.099 0.39085,0.0934 1.08114,-0.70366 1.84307,-1.40175 2.605,-2.09984 0,0 0.074,0.10072 0.39045,0.0966 1.37601,-0.76827 2.43555,-1.53245 3.49507,-2.29662 0,0 0.14254,0.0938 0.45777,0.16281 4.12829,-1.48883 7.94136,-3.04669 11.75442,-4.60455 0.16817,-0.0604 0.33632,-0.12087 1.07503,0.13531 1.55254,0.42784 2.53453,0.63621 3.51656,0.63643 68.04766,0.0147 136.09532,0.0182 204.14296,-0.0248 1.40936,-8.9e-4 2.81839,-0.55627 4.22757,-0.85298 M 143.6338,244.94207 c 0,0 0.0215,-0.11987 0.22719,0.41319 0.33311,0.15662 0.66624,0.31323 0.84256,0.50661 0,0 0.0191,-0.15993 0.25572,0.50929 1.9476,0.78157 3.89522,1.56314 5.70699,2.45679 0,0 0.0783,-0.15775 0.38233,0.57217 2.05712,0.5333 4.10708,1.49076 6.17261,1.52571 8.49561,0.14373 16.99594,0.007 25.40384,-0.0489 0,0 0.0459,-0.0813 0.23651,0.46799 0.34284,0.14226 0.68567,0.28453 0.91153,0.47028 0,0 0.0381,-0.11887 0.0851,0.54219 0.82013,0.87358 1.64026,1.74716 2.69275,3.13185 -0.0271,0.18518 -0.0542,0.37036 -0.63813,1.1629 -0.10677,8.80677 -0.22274,17.61347 -0.27179,26.42057 -0.001,0.24044 0.71771,0.48486 1.68582,1.1777 1.65562,-0.35541 3.82503,-0.164 4.88171,-1.15683 5.93062,-5.57242 11.50618,-11.52051 17.37207,-17.16458 5.57959,-5.36859 11.36691,-10.5213 17.68944,-15.24033 0.65144,0.1033 1.30287,0.29677 1.95435,0.29701 40.11404,0.0146 80.22808,0.0248 120.34204,-0.0346 1.36975,-0.002 2.73846,-0.71769 4.71002,-1.49939 11.18024,-2.35165 17.32934,-9.67602 20.7698,-20.89924 0.17966,-0.96178 0.516,-1.92345 0.51651,-2.88533 0.0263,-47.87421 0.0338,-95.74845 -0.0278,-143.622576 -0.002,-1.33378 -0.77878,-2.66658 -1.59121,-4.59894 -2.1865,-11.38919 -9.72062,-17.35068 -20.85123,-20.84414 -1.4531,-0.2009 -2.9061,-0.57682 -4.35928,-0.5775 -62.76343,-0.0293 -125.52689,-0.0355 -188.29024,0.029 -1.67987,0.002 -3.3589,0.81261 -5.6239,1.63623 -11.92331,2.77479 -18.95145,10.05055 -21.27213,22.57533 -0.31897,1.2169 -0.91557,2.43352 -0.91682,3.65076 -0.0476,45.980096 -0.055,91.960256 0.0304,137.940226 0.003,1.37466 1.05532,2.74734 1.82234,4.93767 0.213,6.78271 3.64916,12.05238 8.24833,17.47129 0.34146,0.22567 0.68292,0.45131 0.9026,0.67754 z"
   id="path1"
   style="stroke:#000000;stroke-opacity:1;stroke-width:5;stroke-dasharray:none" />




































<path
   fill="#3c79d2"
   opacity="1"
   stroke="none"
   d="m 177.9115,154.41222 c -0.0447,-0.44633 -0.0894,-0.89267 0.31403,-1.7718 0.58604,-0.52605 0.83061,-0.60381 0.84671,-0.71471 1.14924,-7.92035 2.28602,-15.84256 3.38197,-23.7704 0.0294,-0.21249 -0.39972,-0.48839 -0.61502,-0.73471 6.50891,-20.85948 19.81339,-36.060387 39.38518,-45.320518 41.23272,-19.508727 88.61563,-2.04591 106.27762,39.781088 9.5596,22.63898 9.62469,50.45293 -10.93232,76.94046 3.59598,3.25549 7.29636,6.6055 10.94657,10.38492 0.19684,0.54962 0.44388,0.66983 0.69092,0.79002 0,0 -0.009,0.0835 -0.15979,0.54918 -0.14112,1.65969 -0.1312,2.85372 -0.12128,4.04776 0,0 -0.0479,-0.0925 -0.26495,-0.0121 -0.41266,0.3883 -0.60822,0.69629 -0.80375,1.00428 0,0 -0.0249,-0.12057 -0.23849,0.001 -0.3891,0.4722 -0.56461,0.82236 -0.74011,1.1725 -0.003,0.28397 -0.12571,0.49988 -0.84619,0.77099 -0.71534,0.43255 -0.95261,0.74183 -1.18989,1.05111 4e-5,2e-5 0.002,-0.12529 -0.2019,-0.0228 -0.39831,0.40915 -0.59253,0.71584 -0.78674,1.02251 0,0 -0.0249,-0.11759 -0.23377,5.8e-4 -0.39071,0.45492 -0.57263,0.79167 -0.75457,1.12841 -0.004,0.29487 -0.13205,0.51995 -0.85975,0.80768 -0.70926,0.43564 -0.94155,0.7388 -1.17389,1.04196 0,0 -0.009,-0.11289 -0.2171,0.008 -0.39077,0.44907 -0.57373,0.7775 -0.75671,1.10591 -0.43427,0.5428 -0.86856,1.08562 -1.8346,1.81255 -0.74688,0.50407 -0.96203,0.82402 -1.17718,1.14396 -0.43182,0.55628 -0.86365,1.11254 -2.02158,1.73844 -2.31158,0.0985 -3.89709,0.12727 -5.48257,0.1561 -3.61926,-3.37963 -6.8541,-8.75914 -10.97083,-9.55042 -3.76901,-0.72444 -8.3378,3.95796 -12.81787,5.48325 -27.29979,9.29438 -53.13293,6.76346 -76.4344,-11.00652 -5.778,-4.40636 -10.29105,-10.4714 -15.41701,-16.47449 -0.9413,-1.65515 -1.85115,-2.60981 -2.76101,-3.56448 0,0 -0.24965,-0.26814 -0.24973,-0.80717 -0.40272,-1.04328 -0.8054,-1.5475 -1.20808,-2.05172 0,0 0.14953,-0.0318 0.0923,-0.23286 -0.34079,-0.42159 -0.62436,-0.64211 -0.90795,-0.86261 0,0 0.0861,-0.0144 0.0615,-0.30829 -0.39577,-0.7975 -0.76689,-1.3011 -1.13801,-1.80469 0,0 -0.0805,-0.1671 0.001,-0.62698 -0.34222,-1.00783 -0.76614,-1.55576 -1.19006,-2.1037 0,0 0.18416,-0.13817 0.20187,-0.38412 -0.38591,-0.69501 -0.78953,-1.14408 -1.19318,-1.59314 0,0 0.0591,-0.1725 0.15876,-0.45751 -0.62029,-1.74676 -1.34027,-3.20851 -2.06028,-4.67026 0,0 0.11017,-0.0396 0.16211,-0.40159 -0.95825,-7.32042 -1.93281,-14.28453 -3.04505,-21.22659 -0.0908,-0.56661 -1.12128,-0.98262 -1.71514,-1.46862 m 86.3916,46.51395 c 4.02826,-1.119 8.05649,-2.23802 13.71918,-3.81107 -5.66727,-5.27411 -10.15753,-9.46841 -14.6662,-13.64285 -2.61941,-2.42523 -2.56741,-4.74493 0.007,-7.22075 4.31644,-4.15104 8.61423,-8.32667 12.77942,-12.62794 2.65366,-2.74037 4.78806,-2.75426 7.48697,0.0889 4.5256,4.76747 9.36935,9.23293 14.25412,13.996 5.07501,-7.96043 7.62649,-16.17254 7.83676,-24.91856 0.5704,-23.72241 -15.2959,-43.35087 -40.32983,-50.66005 -6.62664,-2.480447 -13.17061,-2.928387 -20.19103,1.10146 -32.74966,6.91087 -51.5753,46.07698 -31.05745,76.4104 7.88405,11.65573 19.01242,18.16523 32.89205,22.08422 5.8269,0.20958 11.65379,0.41915 17.48069,0.62873 -0.11947,-0.29819 -0.20791,-0.6156 -0.37466,-0.88448 -0.0613,-0.0988 -0.30765,-0.0829 0.16293,-0.54402 z"
   id="path38"
   style="stroke:#000000;stroke-opacity:0.99588478;stroke-dasharray:none;stroke-dashoffset:0;stroke-width:4" />























</svg>
